<svg width="14" height="11" viewBox="0 0 14 11" fill="none" xmlns="http://www.w3.org/2000/svg">
<path d="M7.793 0.300599C7.98053 0.113128 8.23484 0.0078125 8.5 0.0078125C8.76516 0.0078125 9.01947 0.113128 9.207 0.300599L13.707 4.8006C13.8945 4.98813 13.9998 5.24243 13.9998 5.5076C13.9998 5.77276 13.8945 6.02707 13.707 6.2146L9.207 10.7146C9.0184 10.8968 8.7658 10.9976 8.5036 10.9953C8.2414 10.993 7.99059 10.8878 7.80518 10.7024C7.61977 10.517 7.5146 10.2662 7.51233 10.004C7.51005 9.7418 7.61084 9.4892 7.793 9.3006L10.5 6.5076H1C0.734784 6.5076 0.48043 6.40224 0.292893 6.21471C0.105357 6.02717 0 5.77282 0 5.5076C0 5.24238 0.105357 4.98803 0.292893 4.80049C0.48043 4.61296 0.734784 4.5076 1 4.5076H10.5L7.793 1.7146C7.60553 1.52707 7.50021 1.27276 7.50021 1.0076C7.50021 0.742435 7.60553 0.488127 7.793 0.300599Z" fill="black"/>
</svg>
