<svg width="26" height="23" viewBox="0 0 26 23" fill="none" xmlns="http://www.w3.org/2000/svg">
<g clip-path="url(#clip0_819_4893)">
<path d="M19.7198 0.329565C20.8743 0.963641 21.1852 2.43622 20.3846 3.46183L14.9444 10.402V10.5441L23.5265 9.44225C24.8383 9.27247 26.0035 10.2634 26.0035 11.5454V11.5593C26.0035 12.8309 24.8561 13.8184 23.5551 13.666L14.9444 12.6715V12.8136L20.3774 19.3969C21.2174 20.4156 20.9207 21.9193 19.7555 22.5673L19.4981 22.7093C18.3615 23.34 16.9139 22.8687 16.3992 21.7011L12.9713 13.9501H12.8248L9.11101 21.76C8.55698 22.9242 7.07004 23.3504 5.95126 22.6678L5.93339 22.6574C4.83963 21.9886 4.5787 20.5473 5.37579 19.5598L10.8482 12.7478V12.6057L2.47697 13.6486C1.16875 13.8115 0.00708008 12.824 0.00708008 11.542C0.00708008 10.26 1.16875 9.27247 2.47697 9.43532L10.7731 10.4748V10.3327L5.41153 3.59696C4.60015 2.57828 4.90397 1.09877 6.05492 0.461231L6.24436 0.357284C7.37029 -0.269863 8.80719 0.184039 9.3362 1.33439L12.8891 9.05764H13.0357L16.535 1.27548C17.0533 0.121671 18.4902 -0.34609 19.6232 0.277591L19.7233 0.33303L19.7198 0.329565Z" fill="#927CD2"/>
</g>
<defs>
<clipPath id="clip0_819_4893">
<rect width="26" height="23" fill="white"/>
</clipPath>
</defs>
</svg>
