<svg width="32" height="32" viewBox="0 0 32 32" fill="none" xmlns="http://www.w3.org/2000/svg">
<path fill-rule="evenodd" clip-rule="evenodd" d="M16 32C24.8366 32 32 24.8366 32 16C32 7.16344 24.8366 0 16 0C7.16344 0 0 7.16344 0 16C0 24.8366 7.16344 32 16 32ZM25.6 11.968C25.6 8.896 23.104 6.4 20.032 6.4H11.968C10.4913 6.4 9.07503 6.98663 8.03083 8.03083C6.98663 9.07503 6.4 10.4913 6.4 11.968V20.032C6.4 23.104 8.896 25.6 11.968 25.6H20.032C21.5087 25.6 22.925 25.0134 23.9692 23.9692C25.0134 22.925 25.6 21.5087 25.6 20.032V11.968ZM9.33224 9.33224C9.98036 8.68411 10.8594 8.32 11.776 8.32H20.224C22.1344 8.32 23.68 9.8656 23.68 11.776V20.224C23.68 21.1406 23.3159 22.0196 22.6678 22.6678C22.0196 23.3159 21.1406 23.68 20.224 23.68H11.776C9.8656 23.68 8.32 22.1344 8.32 20.224V11.776C8.32 10.8594 8.68411 9.98036 9.33224 9.33224ZM21.8885 10.1115C21.6635 9.88643 21.3583 9.76 21.04 9.76C20.7217 9.76 20.4165 9.88643 20.1915 10.1115C19.9664 10.3365 19.84 10.6417 19.84 10.96C19.84 11.2783 19.9664 11.5835 20.1915 11.8085C20.4165 12.0336 20.7217 12.16 21.04 12.16C21.3583 12.16 21.6635 12.0336 21.8885 11.8085C22.1136 11.5835 22.24 11.2783 22.24 10.96C22.24 10.6417 22.1136 10.3365 21.8885 10.1115ZM19.3941 12.6059C18.4939 11.7057 17.273 11.2 16 11.2C14.727 11.2 13.5061 11.7057 12.6059 12.6059C11.7057 13.5061 11.2 14.727 11.2 16C11.2 17.273 11.7057 18.4939 12.6059 19.3941C13.5061 20.2943 14.727 20.8 16 20.8C17.273 20.8 18.4939 20.2943 19.3941 19.3941C20.2943 18.4939 20.8 17.273 20.8 16C20.8 14.727 20.2943 13.5061 19.3941 12.6059ZM13.9635 13.9635C14.5036 13.4234 15.2362 13.12 16 13.12C16.7638 13.12 17.4964 13.4234 18.0365 13.9635C18.5766 14.5036 18.88 15.2362 18.88 16C18.88 16.7638 18.5766 17.4964 18.0365 18.0365C17.4964 18.5766 16.7638 18.88 16 18.88C15.2362 18.88 14.5036 18.5766 13.9635 18.0365C13.4234 17.4964 13.12 16.7638 13.12 16C13.12 15.2362 13.4234 14.5036 13.9635 13.9635Z" fill="#927CD2"/>
</svg>
