<svg width="36" height="75" viewBox="0 0 36 75" fill="none" xmlns="http://www.w3.org/2000/svg">
<path d="M1.9043 59V16.0312H13.5498C16.6748 16.0312 18.9453 16.7962 20.3613 18.3262C21.7936 19.8398 22.5098 22.3464 22.5098 25.8457V27.7256C22.5098 29.7438 22.1436 31.3796 21.4111 32.6328C20.695 33.8861 19.5964 34.708 18.1152 35.0986C20.0521 35.5869 21.346 36.7344 21.9971 38.541C22.6644 40.3314 22.998 42.5205 22.998 45.1084C22.998 47.8916 22.7376 50.3249 22.2168 52.4082C21.696 54.4915 20.752 56.111 19.3848 57.2666C18.0176 58.4222 16.0726 59 13.5498 59H1.9043ZM10.3027 32.2178H12.0605C12.8581 32.2178 13.3708 31.9085 13.5986 31.29C13.8265 30.6715 13.9404 29.931 13.9404 29.0684V24.7471C13.9404 23.3636 13.3301 22.6719 12.1094 22.6719H10.3027V32.2178ZM11.1572 51.4316C13.387 51.4316 14.502 50.3737 14.502 48.2578V42.8867C14.502 41.666 14.3148 40.7057 13.9404 40.0059C13.5824 39.2897 12.8988 38.9316 11.8896 38.9316H10.3027V51.3828C10.6608 51.4154 10.9456 51.4316 11.1572 51.4316Z" fill="#2C2C2C"/>
<rect x="17.9165" y="58.3312" width="9.14187" height="7.87902" transform="rotate(10.5125 17.9165 58.3312)" fill="#927CD2" stroke="white"/>
<path d="M18.5398 54.9868L18.446 55.4779L18.9372 55.5717L26.9342 57.0988L27.4253 57.1926L27.5191 56.7014L34.9117 17.9881L35.0055 17.4969L34.5144 17.4032L26.5174 15.8761L26.0262 15.7823L25.9325 16.2734L18.5398 54.9868Z" fill="#927CD2" stroke="white"/>
</svg>
