<svg width="46" height="60" viewBox="0 0 46 60" fill="none" xmlns="http://www.w3.org/2000/svg">
<path d="M22.9979 60L4 36H42L22.9979 60Z" fill="#927CD2"/>
<circle cx="23" cy="23" r="23" fill="#927CD2"/>
<path d="M25.1804 10.029C26.4272 10.2332 27.1988 11.4817 26.8248 12.6837L24.2739 20.8244L24.3215 20.9546L31.6422 17.1406C32.7608 16.5563 34.1366 17.0842 34.5658 18.2597L34.5705 18.2724C34.9962 19.4383 34.2988 20.7186 33.0819 21.0039L25.0337 22.9052L25.0813 23.0355L32.1535 27.2966C33.2472 27.9562 33.4848 29.4319 32.6577 30.4067L32.4746 30.621C31.6673 31.5706 30.2125 31.6114 29.3603 30.709L23.6939 24.7221L23.5626 24.77L22.8498 33.1441C22.7431 34.3925 21.5535 35.269 20.3225 35.0087L20.303 35.005C19.0991 34.7492 18.3827 33.5129 18.7663 32.347L21.389 24.3134L21.3414 24.1831L14.1899 27.8743C13.0722 28.451 11.7007 27.9251 11.2715 26.7496C10.8423 25.5742 11.5525 24.2892 12.7793 24.0112L20.5607 22.2539L20.5131 22.1236L13.454 17.6993C12.3859 17.0304 12.1628 15.5746 12.9806 14.614L13.1155 14.4568C13.9144 13.514 15.3539 13.4607 16.213 14.3426L21.9822 20.2632L22.1136 20.2153L22.6435 11.9367C22.7216 10.7095 23.8525 9.81118 25.0765 10.0128L25.1848 10.031L25.1804 10.029Z" fill="white"/>
</svg>
