<svg width="367" height="231" viewBox="0 0 367 231" fill="none" xmlns="http://www.w3.org/2000/svg">
<path d="M81.5873 29.4841L74.7336 25.7275L14.026 136.718L20.8798 140.475C42.3843 152.214 68.621 147.862 87.332 131.622L68.3005 166.434L75.1542 170.191C97.4597 182.373 124.832 177.215 143.612 159.487C138.843 184.917 149.28 210.721 171.54 222.909C199.801 238.373 236.289 226.03 253.035 195.372C269.781 164.714 260.502 127.336 232.241 111.873C209.936 99.6911 182.564 104.849 163.783 122.576C168.553 97.1465 158.116 71.3427 135.856 59.1543L129.002 55.3977L109.97 90.2091C113.527 65.6877 103.046 41.2298 81.542 29.4905L81.5873 29.4841Z" stroke="#927CD2" stroke-miterlimit="10"/>
<g clip-path="url(#clip0_601_1824)">
<path d="M258.602 63.7582C256.088 61.8616 255.835 58.2099 258.055 55.9899L273.13 40.9746L273.177 40.6318L252.599 40.5629C249.453 40.5556 247.03 37.7945 247.447 34.7014L247.452 34.668C247.865 31.6001 250.89 29.5822 253.906 30.3635L273.869 35.4991L273.915 35.1563L263.257 17.5466C261.61 14.822 262.798 11.2882 265.754 10.0953L266.407 9.8343C269.29 8.67407 272.547 10.271 273.38 13.2518L278.933 33.0414L279.279 33.088L290.57 15.4257C292.254 12.793 295.896 12.2373 298.31 14.2397L298.349 14.2704C300.708 16.2314 300.853 19.7919 298.654 21.9211L283.544 36.6169L283.498 36.9596L303.56 37.1037C306.695 37.1265 309.111 39.8782 308.694 42.9712C308.276 46.0643 305.218 48.0776 302.189 47.2689L282.982 42.1246L282.935 42.4674L293.375 60.4222C294.955 63.1378 293.758 66.6107 290.839 67.7831L290.359 67.9737C287.502 69.129 284.264 67.5773 283.392 64.6338L277.535 44.8712L277.19 44.8247L266.413 62.4882C264.816 65.1072 261.279 65.7791 258.812 63.9143L258.594 63.7488L258.602 63.7582Z" fill="#C6E7D4"/>
</g>
<path d="M258.398 98.386C269.135 90.2867 284.418 92.4349 292.526 103.183L294.505 105.807L255.616 135.143L253.637 132.519C245.545 121.792 247.661 106.485 258.398 98.386Z" fill="#927CD2"/>
<path d="M241.734 76.2962C252.492 68.1809 267.775 70.3291 275.883 81.0772L277.862 83.7008L238.952 113.053L236.973 110.429C228.865 99.6814 230.997 84.3956 241.734 76.2962Z" fill="#927CD2"/>
<g clip-path="url(#clip1_601_1824)">
<path d="M183.511 86.4834L185.38 85.8124C188.362 84.7414 191.634 86.284 192.705 89.2661C196.387 99.5179 207.683 104.844 217.935 101.162C228.187 97.4804 233.513 86.1837 229.831 75.9319C228.76 72.9498 230.303 69.678 233.285 68.6069L235.153 67.9359C245.154 64.3443 250.996 53.5791 247.875 43.4231C244.55 32.5835 232.897 26.8305 222.346 30.62L219.951 31.4803C216.969 32.5513 213.697 31.0087 212.626 28.0266C208.944 17.7748 197.647 12.4484 187.396 16.1304C177.144 19.8123 171.817 31.109 175.499 41.3608C176.57 44.3429 175.028 47.6147 172.046 48.6858L169.65 49.546C159.099 53.3355 153.769 65.1878 158.101 75.6661C162.155 85.4866 173.511 90.0751 183.511 86.4834Z" fill="#E2D1BF"/>
</g>
<g clip-path="url(#clip2_601_1824)">
<path d="M328.764 86.8915L364.968 82.6735L364.714 98.1427L328.653 93.2179L328.095 93.1417L328.086 93.7051L328.078 94.1938L328.075 94.3684L328.181 94.5069L350.672 123.739L336.219 131.73L322.418 97.8153L322.294 97.5093L321.964 97.5038L321.477 97.4959L321.157 97.4906L321.018 97.7799L304.904 131.438L292.134 123.031L315.37 94.0409L315.477 93.9075L315.479 93.7364L315.487 93.2477L315.497 92.6789L314.931 92.7427L279.452 96.7484L279.706 81.2827L314.786 86.4236L315.349 86.5062L315.358 85.9371L315.366 85.4484L315.369 85.2789L315.268 85.1426L293.257 55.4274L307.236 47.671L321.523 81.353L321.65 81.6523L321.975 81.6577L322.461 81.6657L322.789 81.6711L322.925 81.3721L338.08 47.9272L351.556 55.9051L328.32 85.598L328.217 85.7302L328.214 85.898L328.206 86.3867L328.196 86.9576L328.764 86.8915Z" stroke="#927CD2"/>
</g>
<path d="M119.837 203.708C107.409 204.972 96.3034 195.908 95.0375 183.467L94.7285 180.43L139.742 175.85L140.051 178.887C141.315 191.303 132.265 202.443 119.837 203.708Z" fill="#0A3E27"/>
<path d="M122.438 229.274C109.986 230.541 98.8805 221.477 97.6146 209.036L97.3056 206L142.344 201.417L142.653 204.454C143.919 216.895 134.866 228.01 122.438 229.274Z" fill="#0A3E27"/>
<defs>
<clipPath id="clip0_601_1824">
<rect width="61.8107" height="55.9933" fill="white" transform="translate(304.953 70.8193) rotate(-172.318)"/>
</clipPath>
<clipPath id="clip1_601_1824">
<rect width="95.4401" height="90.3499" fill="white" transform="translate(262.844 85.0322) rotate(160.244)"/>
</clipPath>
<clipPath id="clip2_601_1824">
<rect width="86.2739" height="85.4966" fill="white" transform="translate(279.781 46.2588) rotate(0.941194)"/>
</clipPath>
</defs>
</svg>
