<svg width="24" height="24" viewBox="0 0 24 24" fill="none" xmlns="http://www.w3.org/2000/svg">
<path d="M17.3764 6.62386C17.1786 6.42607 16.9438 6.26918 16.6854 6.16214C16.427 6.05509 16.1501 6 15.8703 6C15.5906 6 15.3137 6.05509 15.0553 6.16214C14.7969 6.26918 14.5621 6.42607 14.3643 6.62386L6.35498 14.633C6.11666 14.8713 5.94333 15.1671 5.85288 15.492L5.01495 18.4846C4.99559 18.5539 4.99502 18.6272 5.0133 18.6969C5.03158 18.7665 5.06806 18.8301 5.11898 18.881C5.16991 18.9319 5.23346 18.9684 5.30313 18.9867C5.37279 19.005 5.44606 19.0044 5.51543 18.985L8.50749 18.1471C8.83244 18.0562 9.12848 17.8831 9.36708 17.6445L17.3764 9.63535C17.7757 9.23597 18 8.69435 18 8.12961C18 7.56486 17.7757 7.02324 17.3764 6.62386ZM14.939 7.19799C15.1861 6.95099 15.5212 6.81225 15.8705 6.8123C16.2199 6.81235 16.555 6.95119 16.802 7.19827C17.049 7.44534 17.1877 7.78043 17.1877 8.1298C17.1876 8.47917 17.0488 8.81421 16.8017 9.06122L15.9676 9.89479L14.1049 8.03157L14.939 7.19799ZM13.5307 8.60624L15.394 10.4695L8.79239 17.0704C8.65257 17.2102 8.47909 17.3117 8.28866 17.365L5.99154 18.0079L6.63447 15.7114C6.6879 15.521 6.78936 15.3476 6.92913 15.2077L13.5307 8.60624Z" fill="#2C2C2C"/>
<circle cx="12" cy="12" r="11.5" stroke="#2C2C2C"/>
</svg>
