<svg width="74" height="74" viewBox="0 0 74 74" fill="none" xmlns="http://www.w3.org/2000/svg">
<circle cx="37" cy="37" r="37" fill="#927CD2"/>
<path d="M40.5067 16.1336C42.5123 16.4621 43.7537 18.4707 43.152 20.4042L39.0484 33.5001L39.1249 33.7096L50.9018 27.574C52.7011 26.6341 54.9145 27.4834 55.605 29.3743L55.6124 29.3948C56.2973 31.2704 55.1753 33.33 53.2178 33.7889L40.2707 36.8476L40.3472 37.0571L51.7242 43.912C53.4836 44.9731 53.8659 47.347 52.5353 48.9151L52.2409 49.2599C50.9421 50.7875 48.6017 50.8532 47.2309 49.4014L38.1153 39.7704L37.9041 39.8474L36.7574 53.3187C36.5858 55.3271 34.6721 56.7372 32.6918 56.3184L32.6605 56.3125C30.7237 55.9009 29.5713 53.912 30.1884 52.0366L34.4074 39.1129L34.3309 38.9033L22.8263 44.8413C21.0283 45.769 18.822 44.923 18.1315 43.0321C17.441 41.1411 18.5836 39.074 20.557 38.6267L33.075 35.7997L32.9985 35.5902L21.6424 28.4729C19.9242 27.3968 19.5653 25.0548 20.8809 23.5096L21.098 23.2567C22.3831 21.7399 24.6988 21.6542 26.0808 23.0729L35.3618 32.5973L35.573 32.5203L36.4256 19.2026C36.5512 17.2284 38.3704 15.7832 40.3396 16.1077L40.5137 16.1368L40.5067 16.1336Z" fill="white"/>
</svg>
