<svg width="37" height="37" viewBox="0 0 37 37" fill="none" xmlns="http://www.w3.org/2000/svg">
<circle cx="18.5" cy="18.5" r="18.5" fill="#5E42AD"/>
<path d="M20.2538 7.51016C21.2566 7.6744 21.8773 8.6787 21.5765 9.64548L19.5247 16.1934L19.5629 16.2982L25.4514 13.2304C26.3511 12.7604 27.4577 13.1851 27.803 14.1305L27.8067 14.1407C28.1491 15.0786 27.5882 16.1083 26.6094 16.3378L20.1358 17.8672L20.1741 17.9719L25.8626 21.3994C26.7423 21.9299 26.9335 23.1169 26.2681 23.9009L26.1209 24.0733C25.4716 24.8371 24.3013 24.87 23.6159 24.1441L19.0582 19.3286L18.9525 19.3671L18.3792 26.1027C18.2934 27.1069 17.3365 27.812 16.3464 27.6026L16.3307 27.5996C15.3624 27.3938 14.7861 26.3994 15.0947 25.4616L17.2042 18.9998L17.1659 18.895L11.4136 21.864C10.5146 22.3279 9.41148 21.9049 9.06624 20.9594C8.72099 20.0139 9.29229 18.9804 10.279 18.7567L16.538 17.3432L16.4997 17.2385L10.8217 13.6798C9.96259 13.1418 9.78313 11.9708 10.4409 11.1981L10.5495 11.0717C11.192 10.3133 12.3499 10.2705 13.0409 10.9798L17.6814 15.742L17.787 15.7035L18.2133 9.04467C18.2761 8.05755 19.1857 7.33498 20.1703 7.49719L20.2573 7.51178L20.2538 7.51016Z" fill="white"/>
</svg>
