<svg width="26" height="26" viewBox="0 0 26 26" fill="none" xmlns="http://www.w3.org/2000/svg">
<path d="M7.54 0.25H18.46C22.4819 0.25 25.75 3.51807 25.75 7.54V18.46C25.75 20.3934 24.9819 22.2477 23.6148 23.6148C22.2477 24.9819 20.3934 25.75 18.46 25.75H7.54C3.51807 25.75 0.25 22.4819 0.25 18.46V7.54C0.25 5.60657 1.01805 3.75233 2.38519 2.38519C3.75233 1.01805 5.60657 0.25 7.54 0.25ZM7.28 2.35C5.97248 2.35 4.71852 2.86941 3.79396 3.79396C2.86941 4.71852 2.35 5.97248 2.35 7.28V18.72C2.35 21.4451 4.55493 23.65 7.28 23.65H18.72C20.0275 23.65 21.2815 23.1306 22.206 22.206C23.1306 21.2815 23.65 20.0275 23.65 18.72V7.28C23.65 4.55493 21.4451 2.35 18.72 2.35H7.28ZM19.825 4.8C20.1897 4.8 20.5394 4.94487 20.7973 5.20273C21.0551 5.46059 21.2 5.81033 21.2 6.175C21.2 6.53967 21.0551 6.88941 20.7973 7.14727C20.5394 7.40513 20.1897 7.55 19.825 7.55C19.4603 7.55 19.1106 7.40513 18.8527 7.14727C18.5949 6.88941 18.45 6.53967 18.45 6.175C18.45 5.81033 18.5949 5.46059 18.8527 5.20273C19.1106 4.94487 19.4603 4.8 19.825 4.8ZM13 6.75C14.6576 6.75 16.2473 7.40848 17.4194 8.58058C18.5915 9.75268 19.25 11.3424 19.25 13C19.25 14.6576 18.5915 16.2473 17.4194 17.4194C16.2473 18.5915 14.6576 19.25 13 19.25C11.3424 19.25 9.75268 18.5915 8.58058 17.4194C7.40848 16.2473 6.75 14.6576 6.75 13C6.75 11.3424 7.40848 9.75268 8.58058 8.58058C9.75268 7.40848 11.3424 6.75 13 6.75ZM13 8.85C11.8994 8.85 10.8438 9.28723 10.0655 10.0655C9.28723 10.8438 8.85 11.8994 8.85 13C8.85 14.1006 9.28723 15.1562 10.0655 15.9345C10.8438 16.7128 11.8994 17.15 13 17.15C14.1006 17.15 15.1562 16.7128 15.9345 15.9345C16.7128 15.1562 17.15 14.1006 17.15 13C17.15 11.8994 16.7128 10.8438 15.9345 10.0655C15.1562 9.28723 14.1006 8.85 13 8.85Z" fill="#2C2C2C" stroke="white" stroke-width="0.5"/>
</svg>
