<svg width="19" height="20" viewBox="0 0 19 20" fill="none" xmlns="http://www.w3.org/2000/svg">
<path d="M9.50016 9.60677C8.97526 9.60677 8.47185 9.39825 8.10068 9.02709C7.72951 8.65592 7.521 8.15251 7.521 7.6276C7.521 7.1027 7.72951 6.59929 8.10068 6.22812C8.47185 5.85696 8.97526 5.64844 9.50016 5.64844C10.0251 5.64844 10.5285 5.85696 10.8996 6.22812C11.2708 6.59929 11.4793 7.1027 11.4793 7.6276C11.4793 7.88751 11.4281 8.14488 11.3287 8.385C11.2292 8.62512 11.0834 8.8433 10.8996 9.02709C10.7159 9.21087 10.4977 9.35665 10.2576 9.45612C10.0174 9.55558 9.76007 9.60677 9.50016 9.60677ZM9.50016 2.08594C8.03042 2.08594 6.62088 2.66979 5.58161 3.70905C4.54235 4.74832 3.9585 6.15786 3.9585 7.6276C3.9585 11.7839 9.50016 17.9193 9.50016 17.9193C9.50016 17.9193 15.0418 11.7839 15.0418 7.6276C15.0418 6.15786 14.458 4.74832 13.4187 3.70905C12.3794 2.66979 10.9699 2.08594 9.50016 2.08594Z" fill="#2C2C2C"/>
</svg>
