<svg width="13" height="17" viewBox="0 0 13 17" fill="none" xmlns="http://www.w3.org/2000/svg">
<path d="M6.49967 8.10482C5.97477 8.10482 5.47136 7.8963 5.10019 7.52513C4.72903 7.15397 4.52051 6.65056 4.52051 6.12565C4.52051 5.60074 4.72903 5.09733 5.10019 4.72617C5.47136 4.355 5.97477 4.14648 6.49967 4.14648C7.02458 4.14648 7.52799 4.355 7.89916 4.72617C8.27032 5.09733 8.47884 5.60074 8.47884 6.12565C8.47884 6.38556 8.42765 6.64292 8.32819 6.88305C8.22872 7.12317 8.08294 7.34135 7.89916 7.52513C7.71537 7.70892 7.49719 7.8547 7.25707 7.95416C7.01695 8.05362 6.75958 8.10482 6.49967 8.10482ZM6.49967 0.583984C5.02993 0.583984 3.62039 1.16784 2.58112 2.2071C1.54186 3.24636 0.958008 4.65591 0.958008 6.12565C0.958008 10.2819 6.49967 16.4173 6.49967 16.4173C6.49967 16.4173 12.0413 10.2819 12.0413 6.12565C12.0413 4.65591 11.4575 3.24636 10.4182 2.2071C9.37896 1.16784 7.96942 0.583984 6.49967 0.583984Z" fill="#2C2C2C"/>
</svg>
